<?xml version="1.0" encoding="UTF-8"?>
<svg width="163px" height="41px" viewBox="0 0 163 41" version="1.1" xmlns="http://www.w3.org/2000/svg" xmlns:xlink="http://www.w3.org/1999/xlink">
    <!-- Generator: Sketch 57 (83077) - https://sketch.com -->
    <title>Dark Logo</title>
    <desc>Created with Sketch.</desc>
    <g id="Symbols" stroke="none" stroke-width="1" fill="none" fill-rule="evenodd">
        <g id="Navbar" transform="translate(-22.000000, -20.000000)">
            <g id="Group-5">
                <g id="Dark-Logo" transform="translate(22.000000, 20.000000)">
                    <rect id="Rectangle" fill="#4858F3" fill-rule="evenodd" x="0" y="0" width="41" height="41" rx="20.5"></rect>
                    <g id="LOGO2" transform="translate(11.000000, 10.000000)" fill="#FFFFFF" fill-rule="nonzero">
                        <path d="M3.01649791,8.40267417 C2.36879508,7.94838692 1.91857199,7.30549539 1.67281478,6.49266418 L1.02949843,4.54364081 L5.28458594,4.54364081 L5.28458594,1.94161273e-06 L20.9951581,1.94161273e-06 L20.9951581,5.17364081 L20.6893329,5.17364081 L5.89623642,5.17364081 L5.89623642,8.45521719 L17.4942752,8.45521719 L17.4186923,8.83368373 C17.0864919,10.4971123 16.4404829,11.6275245 15.4665427,12.2010708 C14.5211225,12.7578218 13.0565967,13.0000683 11.0729098,12.9442514 L10.2788306,12.9442514 L10.2788306,20.8723171 L5.28458594,20.8723171 L5.28458594,9.08439115 C4.40125204,9.06830117 3.64286611,8.84199769 3.01649791,8.40267417 Z M5.28458594,8.45431051 L5.28458594,5.17364081 L1.88344643,5.17364081 L2.25434695,6.29757524 C2.46223974,6.98487585 2.8295281,7.50934158 3.36076471,7.88194149 C3.88162807,8.2472658 4.52112465,8.43897978 5.28458594,8.45431051 Z M20.3835076,4.54364081 L20.3835076,0.630001942 L5.89623642,0.630001942 L5.89623642,4.54364081 L20.3835076,4.54364081 Z M5.89623642,20.2423171 L9.6671801,20.2423171 L9.6671801,12.3142514 L9.97300534,12.3142514 L11.0812439,12.3143684 C12.9712971,12.3674391 14.3346637,12.1419253 15.1629543,11.6541511 C15.8934416,11.2239724 16.4213299,10.3737188 16.735858,9.08521719 L5.89623642,9.08521719 L5.89623642,20.2423171 Z" id="F"></path>
                        <path d="M4.40379641,20.8723171 L3.8921559,20.8723171 L3.8649766,20.8672177 C2.39043112,20.5905637 1.35211112,20.0144192 0.768460552,19.1257627 C0.194101362,18.2512531 -0.0530198344,16.9302394 0.00943063608,15.1725181 L0.00943063608,3.27343319 L3.79214593,3.27343319 L3.79214593,0.63 L3.78730141,0.63 C3.78726827,0.63 3.78726827,0.63 3.78726012,7.10542736e-14 L10.4284769,7.10542736e-14 C14.2093681,7.10542736e-14 16.833888,1.31741797 18.4233999,3.66570065 C19.6354315,5.45630885 20.1641235,7.72421458 20.1641235,10.0848044 C20.1641235,17.240974 16.6123198,20.8723171 9.61517094,20.8723171 L5.19084947,20.8723171 L5.19084947,16.2763378 L9.06436194,16.2763378 C10.4259317,16.2763378 11.5780745,16.0651021 12.6204835,15.4165515 C14.1234406,14.481464 14.9853919,12.7832992 14.9853919,10.0848044 C14.9853919,6.07508916 13.2183855,4.05270787 9.61517094,3.90343319 L4.40379641,3.90343319 L4.40379641,20.8723171 Z M9.6274409,3.27368682 C13.580018,3.43715652 15.5970424,5.74568934 15.5970424,10.0848044 C15.5970424,12.996751 14.6297371,14.9024779 12.9367305,15.9558076 C11.7771289,16.6772713 10.5277318,16.9063378 9.06436194,16.9063378 L5.80249995,16.9063378 L5.80249995,20.2423171 L9.61517094,20.2423171 C16.2755252,20.2423171 19.552473,16.891985 19.552473,10.0848044 C19.552473,7.84217369 19.0522194,5.69625858 17.9216546,4.02600635 C16.4503011,1.85228615 14.0152999,0.63 10.4284769,0.63 L4.40379641,0.63 L4.40379641,3.27343319 L9.6274409,3.27368682 Z M3.79214593,0.315 L3.79214593,0.63 L3.79214593,0.315 Z M0.6210756,3.90343319 L0.620877875,15.1840004 C0.562519743,16.8319061 0.786407421,18.0287224 1.27507783,18.7727637 C1.73213978,19.4686785 2.56583379,19.9518708 3.79214593,20.2110543 L3.79214593,3.90343319 L0.6210756,3.90343319 Z" id="D" opacity="0.400000006" transform="translate(10.082062, 10.436159) scale(1, -1) translate(-10.082062, -10.436159) "></path>
                    </g>
                    <g id="deepfashion" stroke-width="1" fill-rule="evenodd" transform="translate(49.976562, 13.576172)">
                        <path d="M0,9.7265625 C0,8.28124277 0.457352197,7.11263467 1.37207031,6.22070312 C2.28678843,5.32877158 3.42447236,4.8828125 4.78515625,4.8828125 C5.50781611,4.8828125 6.18977544,5.030923 6.83105469,5.32714844 C7.47233394,5.62337388 7.96223789,6.05468467 8.30078125,6.62109375 L8.30078125,0.01953125 L9.63867188,0.01953125 L9.63867188,14.4238281 L8.30078125,14.4238281 L8.30078125,12.8222656 C7.96223789,13.3886747 7.46907876,13.829751 6.82128906,14.1455078 C6.17349937,14.4612646 5.49479521,14.6191406 4.78515625,14.6191406 C3.43098281,14.6191406 2.29492646,14.1666712 1.37695312,13.2617188 C0.458979785,12.3567663 0,11.1783927 0,9.7265625 Z M1.34765625,9.7265625 C1.34765625,10.7552135 1.676429,11.6048144 2.33398438,12.2753906 C2.99153975,12.9459669 3.80858887,13.28125 4.78515625,13.28125 C5.78125498,13.28125 6.61620757,12.9654979 7.29003906,12.3339844 C7.96387056,11.7024708 8.30078125,10.8333389 8.30078125,9.7265625 C8.30078125,9.17317432 8.19661562,8.66862207 7.98828125,8.21289062 C7.77994688,7.75715918 7.50651211,7.38769673 7.16796875,7.10449219 C6.82942539,6.82128765 6.45508018,6.60319087 6.04492188,6.45019531 C5.63476357,6.29719976 5.2148459,6.22070312 4.78515625,6.22070312 C3.79556797,6.22070312 2.97526367,6.54296553 2.32421875,7.1875 C1.67317383,7.83203447 1.34765625,8.67838018 1.34765625,9.7265625 Z M12.2363281,9.7265625 C12.2363281,8.27473232 12.6855424,7.10449663 13.5839844,6.21582031 C14.4824264,5.32714399 15.6087172,4.8828125 16.9628906,4.8828125 C18.3105536,4.8828125 19.410803,5.32388882 20.2636719,6.20605469 C21.1165407,7.08822056 21.5429688,8.26171143 21.5429688,9.7265625 C21.5429688,10.0195327 21.5364584,10.2246088 21.5234375,10.3417969 L13.6035156,10.3417969 C13.7272142,11.2402389 14.0983042,11.9580051 14.7167969,12.4951172 C15.3352896,13.0322292 16.08398,13.3007812 16.9628906,13.3007812 C17.5944042,13.3007812 18.1673151,13.1575535 18.6816406,12.8710938 C19.1959661,12.584634 19.5963527,12.1875025 19.8828125,11.6796875 C20.0325528,11.7187502 20.2652979,11.7724606 20.5810547,11.8408203 C20.8968115,11.90918 21.1100255,11.9563801 21.2207031,11.9824219 C20.8430971,12.8092489 20.2750689,13.4554013 19.5166016,13.9208984 C18.7581342,14.3863956 17.9069058,14.6191406 16.9628906,14.6191406 C16.0774695,14.6191406 15.2783239,14.4189473 14.5654297,14.0185547 C13.8525355,13.6181621 13.2861349,13.0436235 12.8662109,12.2949219 C12.446287,11.5462202 12.2363281,10.690109 12.2363281,9.7265625 Z M13.6035156,9.1015625 L20.1757812,9.1015625 C20.0455723,8.20963096 19.6923857,7.50325781 19.1162109,6.98242188 C18.5400362,6.46158594 17.8222699,6.20117188 16.9628906,6.20117188 C16.08398,6.20117188 15.3369171,6.46484111 14.7216797,6.9921875 C14.1064422,7.51953389 13.7337246,8.22265186 13.6035156,9.1015625 Z M23.3691406,9.7265625 C23.3691406,8.27473232 23.8183549,7.10449663 24.7167969,6.21582031 C25.6152389,5.32714399 26.7415297,4.8828125 28.0957031,4.8828125 C29.4433661,4.8828125 30.5436155,5.32388882 31.3964844,6.20605469 C32.2493532,7.08822056 32.6757812,8.26171143 32.6757812,9.7265625 C32.6757812,10.0195327 32.6692709,10.2246088 32.65625,10.3417969 L24.7363281,10.3417969 C24.8600267,11.2402389 25.2311167,11.9580051 25.8496094,12.4951172 C26.4681021,13.0322292 27.2167925,13.3007812 28.0957031,13.3007812 C28.7272167,13.3007812 29.3001276,13.1575535 29.8144531,12.8710938 C30.3287786,12.584634 30.7291652,12.1875025 31.015625,11.6796875 C31.1653653,11.7187502 31.3981104,11.7724606 31.7138672,11.8408203 C32.029624,11.90918 32.242838,11.9563801 32.3535156,11.9824219 C31.9759096,12.8092489 31.4078814,13.4554013 30.6494141,13.9208984 C29.8909467,14.3863956 29.0397183,14.6191406 28.0957031,14.6191406 C27.210282,14.6191406 26.4111364,14.4189473 25.6982422,14.0185547 C24.985348,13.6181621 24.4189474,13.0436235 23.9990234,12.2949219 C23.5790995,11.5462202 23.3691406,10.690109 23.3691406,9.7265625 Z M24.7363281,9.1015625 L31.3085938,9.1015625 C31.1783848,8.20963096 30.8251982,7.50325781 30.2490234,6.98242188 C29.6728487,6.46158594 28.9550824,6.20117188 28.0957031,6.20117188 C27.2167925,6.20117188 26.4697296,6.46484111 25.8544922,6.9921875 C25.2392547,7.51953389 24.8665371,8.22265186 24.7363281,9.1015625 Z M35.1464844,18.9453125 L35.1464844,5.08789062 L36.484375,5.08789062 L36.484375,6.69921875 C36.8229184,6.12629922 37.3177051,5.68034014 37.96875,5.36132812 C38.6197949,5.04231611 39.3001267,4.8828125 40.0097656,4.8828125 C41.3639391,4.8828125 42.4983678,5.3401647 43.4130859,6.25488281 C44.3278041,7.16960093 44.7851562,8.35285732 44.7851562,9.8046875 C44.7851562,11.2500072 44.3294316,12.4137326 43.4179688,13.2958984 C42.5065059,14.1780643 41.3704495,14.6191406 40.0097656,14.6191406 C39.2871058,14.6191406 38.6018913,14.4726577 37.9541016,14.1796875 C37.3063119,13.8867173 36.8164079,13.4602893 36.484375,12.9003906 L36.484375,18.9453125 L35.1464844,18.9453125 Z M36.484375,9.8046875 C36.484375,10.3580757 36.5885406,10.8610003 36.796875,11.3134766 C37.0052094,11.7659528 37.2802717,12.1321601 37.6220703,12.4121094 C37.9638689,12.6920587 38.3398417,12.9069003 38.75,13.0566406 C39.1601583,13.206381 39.580076,13.28125 40.0097656,13.28125 C40.9993539,13.28125 41.8196582,12.9638704 42.4707031,12.3291016 C43.121748,11.6943328 43.4472656,10.8528698 43.4472656,9.8046875 C43.4472656,8.76952607 43.1184929,7.91341484 42.4609375,7.23632812 C41.8033821,6.55924141 40.986333,6.22070312 40.0097656,6.22070312 C39.0136669,6.22070312 38.1770867,6.53971035 37.5,7.17773438 C36.8229133,7.8157584 36.484375,8.69140068 36.484375,9.8046875 Z" id="deep" fill="#C9C7FF" fill-rule="nonzero"></path>
                        <path d="M46.2207031,7.04101562 L46.2207031,5.08789062 L47.9980469,5.08789062 L47.9980469,4.34570312 C47.9980469,2.96548789 48.3382127,1.89616265 49.0185547,1.13769531 C49.6988966,0.379227979 50.6868425,0 51.9824219,0 L52.9980469,0 L52.9980469,2.34375 L51.9824219,2.34375 C50.9667918,2.34375 50.4589844,3.01106104 50.4589844,4.34570312 L50.4589844,5.08789062 L52.4414062,5.08789062 L52.4414062,7.04101562 L50.4589844,7.04101562 L50.4589844,14.4238281 L47.9980469,14.4238281 L47.9980469,7.04101562 L46.2207031,7.04101562 Z M53.7011719,9.74609375 C53.7011719,9.01692344 53.8330065,8.34310205 54.0966797,7.72460938 C54.3603529,7.1061167 54.7135395,6.59179893 55.15625,6.18164062 C55.5989605,5.77148232 56.1051404,5.4524751 56.6748047,5.22460938 C57.244469,4.99674365 57.8385386,4.8828125 58.4570312,4.8828125 C58.9713567,4.8828125 59.5052056,4.99186089 60.0585938,5.20996094 C60.6119819,5.42806099 61.0449203,5.77148203 61.3574219,6.24023438 L61.3574219,5.08789062 L63.7988281,5.08789062 L63.7988281,14.4238281 L61.3574219,14.4238281 L61.3574219,13.2226562 C61.083983,13.6653668 60.6624377,14.0055327 60.0927734,14.2431641 C59.5231091,14.4807955 58.9778672,14.5996094 58.4570312,14.5996094 C57.6302042,14.5996094 56.8571,14.4059264 56.1376953,14.0185547 C55.4182907,13.631183 54.832359,13.0615272 54.3798828,12.3095703 C53.9274066,11.5576134 53.7011719,10.7031298 53.7011719,9.74609375 Z M56.2207031,9.74609375 C56.2207031,10.4752641 56.477862,11.0774716 56.9921875,11.5527344 C57.506513,12.0279972 58.1087205,12.265625 58.7988281,12.265625 C59.4954462,12.265625 60.0960261,12.0377627 60.6005859,11.5820312 C61.1051458,11.1262998 61.3574219,10.5143268 61.3574219,9.74609375 C61.3574219,8.97786074 61.1018906,8.3658877 60.5908203,7.91015625 C60.07975,7.4544248 59.4824253,7.2265625 58.7988281,7.2265625 C58.1022101,7.2265625 57.498375,7.46256274 56.9873047,7.93457031 C56.4762344,8.40657788 56.2207031,9.01041299 56.2207031,9.74609375 Z M65.8984375,11.484375 L68.1738281,11.484375 C68.2063804,11.8229184 68.3902978,12.1093738 68.7255859,12.34375 C69.0608741,12.5781262 69.4498676,12.685547 69.8925781,12.6660156 C70.2376319,12.6529947 70.5273426,12.5602222 70.7617188,12.3876953 C70.9960949,12.2151684 71.1132812,11.995444 71.1132812,11.7285156 C71.1328126,11.2923155 70.7942743,10.9960945 70.0976562,10.8398438 L68.8183594,10.5273438 C68.349607,10.3971348 67.9475928,10.2457691 67.6123047,10.0732422 C67.2770166,9.90071528 67.0182301,9.72819097 66.8359375,9.55566406 C66.6536449,9.38313716 66.5104172,9.18294385 66.40625,8.95507812 C66.3020828,8.7272124 66.2369793,8.51888115 66.2109375,8.33007812 C66.1848957,8.1412751 66.171875,7.91992314 66.171875,7.66601562 C66.171875,6.91731396 66.5136685,6.26627881 67.1972656,5.71289062 C67.8808628,5.15950244 68.6881464,4.8828125 69.6191406,4.8828125 C70.0813825,4.8828125 70.5159485,4.93815049 70.9228516,5.04882812 C71.3297546,5.15950576 71.7089826,5.32551973 72.0605469,5.546875 C72.4121111,5.76823027 72.6936838,6.0742168 72.9052734,6.46484375 C73.116863,6.8554707 73.2324218,7.30794014 73.2519531,7.82226562 L70.9375,7.82226562 C70.9179687,7.50325361 70.7812513,7.26399819 70.5273438,7.10449219 C70.2734362,6.94498618 69.9902359,6.86523438 69.6777344,6.86523438 C69.339191,6.86523438 69.0576183,6.93684824 68.8330078,7.08007812 C68.6083973,7.22330801 68.4960938,7.45768066 68.4960938,7.78320312 C68.4960938,7.9654957 68.5872387,8.12337173 68.7695312,8.25683594 C68.9518238,8.39030015 69.1861965,8.49283818 69.4726562,8.56445312 L71.0351562,8.9453125 C71.4453146,9.04947969 71.8050115,9.19433501 72.1142578,9.37988281 C72.4235042,9.56543062 72.6627596,9.75748599 72.8320312,9.95605469 C73.0013029,10.1546234 73.1363927,10.3710926 73.2373047,10.6054688 C73.3382167,10.8398449 73.4033202,11.044921 73.4326172,11.2207031 C73.4619142,11.3964853 73.4765625,11.5722647 73.4765625,11.7480469 C73.4765625,12.3535187 73.2910175,12.8792295 72.9199219,13.3251953 C72.5488263,13.7711611 72.080081,14.0983063 71.5136719,14.3066406 C70.9472628,14.514975 70.3287794,14.6191406 69.6582031,14.6191406 C68.6751253,14.6191406 67.8076209,14.3359403 67.0556641,13.7695312 C66.3037072,13.2031222 65.9179688,12.441411 65.8984375,11.484375 Z M75.625,14.4238281 L75.625,0 L78.0664062,0 L78.0664062,6.5234375 C78.2682302,6.00260156 78.6653616,5.59895977 79.2578125,5.3125 C79.8502634,5.02604023 80.4199191,4.8828125 80.9667969,4.8828125 C82.17123,4.8828125 83.0989551,5.26204048 83.75,6.02050781 C84.4010449,6.77897515 84.7265625,7.84830039 84.7265625,9.22851562 L84.7265625,14.4238281 L82.2851562,14.4238281 L82.2851562,9.34570312 C82.2851562,8.7076791 82.0898457,8.20149927 81.6992188,7.82714844 C81.3085918,7.45279761 80.8463568,7.265625 80.3125,7.265625 C80.0390611,7.265625 79.7770195,7.30468711 79.5263672,7.3828125 C79.2757149,7.46093789 79.0380871,7.58137939 78.8134766,7.74414062 C78.5888661,7.90690186 78.4082038,8.13476416 78.2714844,8.42773438 C78.1347649,8.72070459 78.0664062,9.05924287 78.0664062,9.44335938 L78.0664062,14.4238281 L75.625,14.4238281 Z M87.0019531,1.46484375 C87.0019531,1.05468545 87.1582016,0.708009229 87.4707031,0.424804688 C87.7832047,0.141600146 88.1542947,0 88.5839844,0 C89.0071636,0 89.3701157,0.141600146 89.6728516,0.424804688 C89.9755875,0.708009229 90.1269531,1.05468545 90.1269531,1.46484375 C90.1269531,1.8815125 89.9755875,2.2314439 89.6728516,2.51464844 C89.3701157,2.79785298 89.0071636,2.93945312 88.5839844,2.93945312 C88.1477843,2.93945312 87.7750667,2.79785298 87.4658203,2.51464844 C87.156574,2.2314439 87.0019531,1.8815125 87.0019531,1.46484375 Z M87.3632812,14.4238281 L87.3632812,5.08789062 L89.7851562,5.08789062 L89.7851562,14.4238281 L87.3632812,14.4238281 Z M92.6269531,12.2851562 C92.1842426,11.5364546 91.9628906,10.6835985 91.9628906,9.7265625 C91.9628906,8.76952646 92.1842426,7.91992559 92.6269531,7.17773438 C93.0696637,6.43554316 93.6588505,5.86751499 94.3945312,5.47363281 C95.130212,5.07975063 95.9407508,4.8828125 96.8261719,4.8828125 C97.7050825,4.8828125 98.5123661,5.07975063 99.2480469,5.47363281 C99.9837276,5.86751499 100.572914,6.43717075 101.015625,7.18261719 C101.458336,7.92806362 101.679688,8.77603691 101.679688,9.7265625 C101.679688,10.6770881 101.458336,11.5283166 101.015625,12.2802734 C100.572914,13.0322303 99.9837276,13.6067688 99.2480469,14.0039062 C98.5123661,14.4010437 97.7050825,14.5996094 96.8261719,14.5996094 C95.9407508,14.5996094 95.130212,14.4010437 94.3945312,14.0039062 C93.6588505,13.6067688 93.0696637,13.0338579 92.6269531,12.2851562 Z M94.3847656,9.7265625 C94.3847656,10.4687537 94.6191383,11.0709612 95.0878906,11.5332031 C95.556643,11.995445 96.1360643,12.2265625 96.8261719,12.2265625 C97.509769,12.2265625 98.0859352,11.995445 98.5546875,11.5332031 C99.0234398,11.0709612 99.2578125,10.4687537 99.2578125,9.7265625 C99.2578125,8.99739219 99.0234398,8.40820537 98.5546875,7.95898438 C98.0859352,7.50976338 97.509769,7.28515625 96.8261719,7.28515625 C96.1425747,7.28515625 95.564781,7.51139097 95.0927734,7.96386719 C94.6207659,8.41634341 94.3847656,9.00390264 94.3847656,9.7265625 Z M103.857422,14.4238281 L103.857422,5.08789062 L106.298828,5.08789062 L106.298828,6.46484375 C106.552736,5.98307051 106.940102,5.59895977 107.460938,5.3125 C107.981773,5.02604023 108.522133,4.8828125 109.082031,4.8828125 C110.182297,4.8828125 111.036781,5.22786113 111.645508,5.91796875 C112.254235,6.60807637 112.558594,7.60416016 112.558594,8.90625 L112.558594,14.4238281 L110.117188,14.4238281 L110.117188,9.34570312 C110.117188,8.6816373 109.957684,8.16894712 109.638672,7.80761719 C109.31966,7.44628726 108.886721,7.265625 108.339844,7.265625 C107.734372,7.265625 107.24284,7.43814932 106.865234,7.78320312 C106.487628,8.12825693 106.298828,8.68163682 106.298828,9.44335938 L106.298828,14.4238281 L103.857422,14.4238281 Z" id="fashion" fill="#FFFFFF" fill-rule="nonzero"></path>
                    </g>
                </g>
            </g>
        </g>
    </g>
</svg>