<svg xmlns="http://www.w3.org/2000/svg" width="16" height="16" viewBox="0 0 16 16">
    <path fill="#FFF" fill-rule="nonzero" d="M11.077 8c0 1.02-.827 1.846-1.846 1.846H6.769A1.847 1.847 0 0 1 4.923 8V1.846C4.923.826 5.75 0 6.77 0h2.462c1.019 0 1.846.826 1.846 1.846V8zm-1.718 3.705c-1.357 1.357-1.34 1.353-2.694 0L2.623 7.663c-.743-.745-.573-.894.295-.894H13.11c.783 0 1.036.149.292.893L9.36 11.705zm5.41-.013v2.462c0 .339-.275.615-.615.615H1.846a.616.616 0 0 1-.615-.615v-2.462H0v2.462C0 15.173.827 16 1.846 16h12.308C15.173 16 16 15.173 16 14.154v-2.462h-1.23z"/>
</svg>
