<svg xmlns="http://www.w3.org/2000/svg" width="172" height="50" viewBox="0 0 172 50">
    <defs>
        <linearGradient id="a" x1="0%" y1="0%" y2="100%">
            <stop offset="0%" stop-color="#483DEC"/>
            <stop offset="100%" stop-color="#4074EB"/>
        </linearGradient>
    </defs>
    <g fill="none" fill-rule="evenodd">
        <g fill-rule="nonzero" transform="translate(0 1)">
            <rect width="49" height="49" fill="url(#a)" rx="24.5"/>
            <g fill="#FFF">
                <path d="M15.022 22.204c-.864-.606-1.464-1.463-1.792-2.547l-.857-2.599h5.673V11h20.948v6.898H18.862v4.376h15.464l-.101.504c-.443 2.218-1.304 3.725-2.603 4.49-1.26.742-3.213 1.065-5.858.991h-1.059v10.57h-6.659V23.114c-1.178-.022-2.189-.324-3.024-.91zm3.024.068v-4.374h-4.535l.495 1.499c.277.916.767 1.615 1.475 2.112.695.487 1.547.743 2.565.763zm20.132-5.214V11.84H18.862v5.218h19.316zM18.862 37.99h5.028V27.419h1.885c2.52.07 4.338-.23 5.442-.88.974-.574 1.678-1.707 2.097-3.425H18.862V37.99z"/>
                <path d="M16.872 11h-.682l-.037.007c-1.966.369-3.35 1.137-4.128 2.322-.766 1.166-1.096 2.927-1.012 5.27v15.866h5.043v3.525h-.006v.84h8.855c5.04 0 8.54-1.757 10.66-4.888 1.616-2.387 2.32-5.411 2.32-8.559C37.885 15.842 33.15 11 23.82 11h-5.899v6.128h5.165c1.815 0 3.351.282 4.741 1.146 2.004 1.247 3.154 3.511 3.154 7.11 0 5.346-2.356 8.042-7.16 8.241h-6.95V11zm6.965 23.465c5.27-.218 7.96-3.296 7.96-9.082 0-3.882-1.29-6.423-3.548-7.828-1.546-.962-3.212-1.267-5.163-1.267h-4.35V11.84h5.084c8.88 0 13.25 4.467 13.25 13.543 0 2.99-.667 5.852-2.174 8.079-1.962 2.898-5.209 4.528-9.991 4.528h-8.033v-3.525h6.965zm-7.78 3.945v-.42.42zm-4.229-4.785v-15.04c-.078-2.198.22-3.794.872-4.786.61-.927 1.721-1.572 3.356-1.917v21.743h-4.228z" opacity=".4"/>
            </g>
        </g>
        <path fill="#4742EC" d="M57.977 25.303c0-1.446.457-2.614 1.372-3.506.914-.892 2.052-1.338 3.413-1.338a4.82 4.82 0 0 1 2.046.444c.64.297 1.13.728 1.47 1.294v-6.601h1.337V30h-1.338v-1.602c-.338.567-.831 1.008-1.48 1.324a4.59 4.59 0 0 1-2.035.473c-1.354 0-2.49-.452-3.408-1.357-.918-.905-1.377-2.083-1.377-3.535zm1.347 0c0 1.028.329 1.878.987 2.549.657.67 1.474 1.005 2.45 1.005.997 0 1.832-.315 2.506-.947.673-.631 1.01-1.5 1.01-2.607 0-.554-.104-1.058-.312-1.514a3.093 3.093 0 0 0-.82-1.108 3.818 3.818 0 0 0-1.124-.655c-.41-.153-.83-.23-1.26-.23-.989 0-1.81.323-2.46.968-.651.644-.977 1.49-.977 2.539zm10.889 0c0-1.452.45-2.622 1.348-3.511.898-.889 2.024-1.333 3.378-1.333 1.348 0 2.448.441 3.301 1.323.853.882 1.28 2.056 1.28 3.52 0 .294-.007.499-.02.616h-7.92c.124.898.495 1.616 1.113 2.153.619.537 1.368.806 2.246.806.632 0 1.205-.143 1.72-.43a3.063 3.063 0 0 0 1.2-1.191c.15.039.383.093.699.161.315.068.529.116.64.142a4.331 4.331 0 0 1-1.705 1.938c-.758.466-1.61.698-2.554.698-.885 0-1.684-.2-2.397-.6a4.393 4.393 0 0 1-1.7-1.724c-.42-.749-.63-1.605-.63-2.568zm1.367-.625h6.572c-.13-.892-.483-1.599-1.06-2.12-.575-.52-1.293-.78-2.153-.78-.878 0-1.626.263-2.24.79-.616.528-.989 1.23-1.119 2.11zm9.766.625c0-1.452.449-2.622 1.347-3.511.899-.889 2.025-1.333 3.38-1.333 1.347 0 2.447.441 3.3 1.323.853.882 1.28 2.056 1.28 3.52 0 .294-.007.499-.02.616h-7.92c.124.898.495 1.616 1.113 2.153.619.537 1.367.806 2.246.806.632 0 1.205-.143 1.719-.43a3.063 3.063 0 0 0 1.201-1.191c.15.039.383.093.698.161.316.068.53.116.64.142a4.331 4.331 0 0 1-1.704 1.938c-.758.466-1.61.698-2.554.698-.885 0-1.684-.2-2.397-.6a4.393 4.393 0 0 1-1.7-1.724c-.42-.749-.63-1.605-.63-2.568zm1.367-.625h6.572c-.13-.892-.483-1.599-1.06-2.12-.576-.52-1.293-.78-2.153-.78-.879 0-1.626.263-2.24.79-.616.528-.989 1.23-1.12 2.11zm10.41 9.843V20.664h1.338v1.611c.338-.573.833-1.018 1.484-1.337a4.582 4.582 0 0 1 2.041-.479c1.355 0 2.489.457 3.404 1.372.914.915 1.372 2.098 1.372 3.55 0 1.445-.456 2.609-1.367 3.491-.912.882-2.048 1.323-3.409 1.323a4.932 4.932 0 0 1-2.055-.44c-.648-.292-1.138-.719-1.47-1.278v6.044h-1.338zm1.338-9.14c0 .553.104 1.056.312 1.509.209.452.484.818.826 1.098.341.28.717.495 1.128.645.41.15.83.224 1.26.224.989 0 1.81-.317 2.46-.952.651-.634.977-1.476.977-2.524 0-1.035-.329-1.891-.987-2.569-.657-.677-1.474-1.015-2.45-1.015-.997 0-1.833.319-2.51.957-.678.638-1.016 1.514-1.016 2.627zm9.736-2.764v-1.953h1.778v-.742c0-1.38.34-2.45 1.02-3.208.68-.759 1.668-1.138 2.964-1.138h1.016v2.344h-1.016c-1.016 0-1.523.667-1.523 2.002v.742h1.982v1.953h-1.982V30h-2.461v-7.383h-1.778zm7.48 2.705c0-.729.133-1.403.396-2.021a4.445 4.445 0 0 1 1.06-1.543 4.881 4.881 0 0 1 3.3-1.299c.515 0 1.049.109 1.602.327.554.218.986.562 1.299 1.03v-1.152h2.441V30h-2.441v-1.201c-.273.443-.695.783-1.265 1.02-.57.238-1.115.357-1.635.357-.827 0-1.6-.194-2.32-.581-.72-.388-1.305-.957-1.758-1.71-.452-.751-.678-1.606-.678-2.563zm2.52 0c0 .73.257 1.332.772 1.807a2.577 2.577 0 0 0 1.806.713c.697 0 1.298-.228 1.802-.684.505-.456.757-1.068.757-1.836s-.256-1.38-.767-1.836a2.608 2.608 0 0 0-1.792-.683c-.696 0-1.3.236-1.811.708-.511.472-.767 1.076-.767 1.811zm9.678 1.739h2.275c.033.338.217.625.552.859.335.234.724.342 1.167.322.345-.013.635-.106.87-.278.234-.173.35-.392.35-.66.02-.436-.318-.732-1.015-.888l-1.28-.312a6.38 6.38 0 0 1-1.205-.455c-.335-.172-.594-.345-.776-.517a1.917 1.917 0 0 1-.43-.6 2.273 2.273 0 0 1-.195-.626 4.927 4.927 0 0 1-.04-.664c0-.749.342-1.4 1.026-1.953.683-.553 1.49-.83 2.422-.83.462 0 .897.055 1.303.166.407.11.787.277 1.138.498.352.221.633.527.845.918.211.39.327.843.347 1.357h-2.315c-.02-.319-.156-.558-.41-.717a1.564 1.564 0 0 0-.85-.24c-.338 0-.62.072-.844.215-.225.143-.337.378-.337.703 0 .183.09.34.273.474.182.133.417.236.703.308l1.563.38a4 4 0 0 1 1.079.435c.31.186.548.378.718.576.169.199.304.415.405.65.1.234.166.44.195.615.03.176.044.351.044.527 0 .606-.185 1.131-.557 1.577-.37.446-.84.773-1.406.982a5.336 5.336 0 0 1-1.855.312c-.983 0-1.85-.283-2.603-.85-.752-.566-1.137-1.327-1.157-2.284zM133.602 30V15.576h2.441V22.1c.202-.521.599-.925 1.191-1.211.593-.287 1.162-.43 1.71-.43 1.204 0 2.132.38 2.783 1.138.65.758.976 1.827.976 3.208V30h-2.441v-5.078c0-.638-.196-1.144-.586-1.519a1.937 1.937 0 0 0-1.387-.561c-.273 0-.535.039-.786.117-.25.078-.488.199-.713.361a1.72 1.72 0 0 0-.542.684 2.377 2.377 0 0 0-.205 1.016V30h-2.441zm11.377-12.959c0-.41.156-.757.468-1.04a1.602 1.602 0 0 1 1.114-.425c.423 0 .786.142 1.088.425.303.283.455.63.455 1.04 0 .417-.152.767-.455 1.05a1.538 1.538 0 0 1-1.088.425c-.437 0-.81-.142-1.119-.425a1.367 1.367 0 0 1-.463-1.05zm.36 12.959v-9.336h2.423V30h-2.422zm5.265-2.139c-.443-.748-.665-1.601-.665-2.558 0-.957.222-1.807.665-2.55a4.51 4.51 0 0 1 1.767-1.703 5.07 5.07 0 0 1 2.432-.591 5.05 5.05 0 0 1 2.422.59 4.5 4.5 0 0 1 1.767 1.71c.443.745.664 1.593.664 2.544 0 .95-.221 1.801-.664 2.553a4.516 4.516 0 0 1-1.767 1.724 5.016 5.016 0 0 1-2.422.596 5.036 5.036 0 0 1-2.432-.596 4.526 4.526 0 0 1-1.767-1.719zm1.757-2.558c0 .742.235 1.344.703 1.806.47.463 1.049.694 1.739.694.683 0 1.26-.231 1.728-.694.469-.462.703-1.064.703-1.806 0-.73-.234-1.319-.703-1.768-.469-.45-1.045-.674-1.728-.674-.684 0-1.262.227-1.734.679-.472.453-.708 1.04-.708 1.763zM161.834 30v-9.336h2.441v1.377c.254-.482.642-.866 1.162-1.152a3.32 3.32 0 0 1 1.622-.43c1.1 0 1.954.345 2.563 1.035.609.69.913 1.686.913 2.988V30h-2.441v-5.078c0-.664-.16-1.177-.479-1.538-.319-.362-.752-.542-1.299-.542-.605 0-1.097.172-1.474.517-.378.345-.567.899-.567 1.66V30h-2.441z"/>
    </g>
</svg>
