<svg xmlns="http://www.w3.org/2000/svg" width="50" height="50" viewBox="0 0 50 50">
    <defs>
        <linearGradient id="a" x1="0%" y1="0%" y2="100%">
            <stop offset="0%" stop-color="#483DEC"/>
            <stop offset="100%" stop-color="#4074EB"/>
        </linearGradient>
    </defs>
    <g fill="none" fill-rule="nonzero">
        <rect width="50" height="50" fill="url(#a)" rx="24.5"/>
        <g fill="#FFF">
            <path d="M15.39 22.828c-.894-.627-1.516-1.515-1.855-2.637l-.889-2.692h5.876v-6.275h21.696v7.145H19.367v4.532h16.016l-.104.522c-.459 2.298-1.351 3.859-2.696 4.65-1.306.77-3.328 1.104-6.067 1.027h-1.097v10.948h-6.897V23.77c-1.22-.023-2.267-.335-3.132-.942zm3.132.071v-4.53h-4.697l.513 1.552c.287.95.794 1.674 1.528 2.188.719.505 1.602.77 2.656.79zm20.851-5.4v-5.405H19.367V17.5h20.006zm-20.006 21.68h5.207v-10.95h.423l1.53.001c2.61.073 4.493-.238 5.637-.912 1.009-.594 1.738-1.768 2.172-3.547h-14.97v15.407z"/>
            <path d="M17.306 11.224h-.707l-.037.008c-2.036.382-3.47 1.177-4.276 2.404-.793 1.208-1.135 3.032-1.048 5.46v16.432h5.223v3.65h-.006v.87h9.17c5.222 0 8.846-1.82 11.041-5.062 1.674-2.473 2.404-5.605 2.404-8.864 0-9.883-4.905-14.898-14.567-14.898h-6.11v6.347h5.349c1.88 0 3.471.292 4.91 1.188 2.076 1.291 3.267 3.636 3.267 7.363 0 5.537-2.44 8.33-7.416 8.536h-7.197V11.224zm7.214 24.303c5.458-.225 8.243-3.413 8.243-9.405 0-4.022-1.336-6.653-3.674-8.108-1.6-.996-3.326-1.313-5.347-1.313h-4.505v-4.607h5.266c9.197 0 13.723 4.627 13.723 14.028 0 3.096-.691 6.06-2.253 8.366-2.031 3.002-5.394 4.69-10.347 4.69h-8.32v-3.65h7.214zm-8.059 4.086v-.435.435zm-4.379-4.955V19.08c-.08-2.276.228-3.929.903-4.956.631-.961 1.783-1.628 3.476-1.986v22.52h-4.379z" opacity=".4"/>
        </g>
    </g>
</svg>
