<svg xmlns="http://www.w3.org/2000/svg" width="92" height="23" viewBox="0 0 92 23">
    <g fill="none" fill-rule="nonzero">
        <path fill="#253B80" d="M34.286 5.007H29.21a.705.705 0 0 0-.696.595l-2.052 13.012a.423.423 0 0 0 .418.488h2.422a.705.705 0 0 0 .697-.596l.554-3.51a.705.705 0 0 1 .696-.595h1.606c3.342 0 5.271-1.617 5.775-4.823.227-1.402.01-2.504-.647-3.275-.721-.848-2-1.296-3.698-1.296zm.585 4.752c-.278 1.821-1.669 1.821-3.014 1.821h-.765l.537-3.4a.423.423 0 0 1 .417-.357h.351c.917 0 1.781 0 2.228.522.266.312.348.775.246 1.414zm14.582-.058h-2.43a.423.423 0 0 0-.418.357l-.107.68-.17-.247c-.526-.763-1.7-1.019-2.87-1.019-2.685 0-4.978 2.034-5.425 4.887-.232 1.423.098 2.783.905 3.732.74.873 1.8 1.236 3.06 1.236 2.164 0 3.364-1.39 3.364-1.39l-.108.674a.423.423 0 0 0 .417.49h2.188a.705.705 0 0 0 .697-.596l1.313-8.316a.421.421 0 0 0-.416-.488zm-3.387 4.729c-.234 1.388-1.336 2.32-2.741 2.32-.706 0-1.27-.226-1.632-.655-.359-.426-.496-1.032-.381-1.707.219-1.377 1.339-2.339 2.723-2.339.69 0 1.25.23 1.62.662.37.437.517 1.047.411 1.719zM62.394 9.7h-2.442a.708.708 0 0 0-.584.31l-3.367 4.96-1.428-4.766a.707.707 0 0 0-.677-.503h-2.399a.423.423 0 0 0-.401.56l2.69 7.892-2.53 3.57a.423.423 0 0 0 .346.667h2.438a.704.704 0 0 0 .58-.303l8.121-11.722a.423.423 0 0 0-.347-.664z"/>
        <path fill="#179BD7" d="M70.478 5.007h-5.075a.705.705 0 0 0-.696.595l-2.052 13.012a.422.422 0 0 0 .417.488h2.604c.243 0 .45-.177.487-.417l.582-3.688a.705.705 0 0 1 .696-.596h1.606c3.343 0 5.271-1.617 5.776-4.823.227-1.402.009-2.504-.648-3.275-.72-.848-1.999-1.296-3.697-1.296zm.585 4.752c-.276 1.821-1.668 1.821-3.013 1.821h-.765l.538-3.4a.421.421 0 0 1 .417-.357h.35c.916 0 1.781 0 2.228.522.266.312.347.775.245 1.414zm14.582-.058h-2.429a.42.42 0 0 0-.417.357l-.107.68-.171-.247c-.526-.763-1.698-1.019-2.869-1.019-2.685 0-4.978 2.034-5.424 4.887-.232 1.423.097 2.783.904 3.732.742.873 1.8 1.236 3.06 1.236 2.164 0 3.364-1.39 3.364-1.39l-.109.674a.423.423 0 0 0 .419.49h2.188a.705.705 0 0 0 .696-.596l1.314-8.316a.424.424 0 0 0-.42-.488zm-3.387 4.729c-.233 1.388-1.337 2.32-2.742 2.32-.704 0-1.27-.226-1.631-.655-.36-.426-.494-1.032-.382-1.707.22-1.377 1.34-2.339 2.723-2.339.69 0 1.251.23 1.62.662.372.437.52 1.047.412 1.719zm6.251-9.066l-2.082 13.25a.422.422 0 0 0 .417.488h2.093a.704.704 0 0 0 .697-.596l2.054-13.01a.423.423 0 0 0-.417-.49h-2.345a.424.424 0 0 0-.417.358z"/>
        <path fill="#253B80" d="M5.39 21.63l.389-2.464-.864-.02H.787L3.656.959a.234.234 0 0 1 .232-.2h6.96c2.31 0 3.905.482 4.737 1.43.39.446.639.91.76 1.423.125.537.127 1.179.004 1.961l-.009.058v.501l.39.221c.299.151.566.355.79.603.335.38.55.864.642 1.438.094.59.063 1.291-.091 2.086-.178.914-.466 1.71-.855 2.361a4.857 4.857 0 0 1-1.354 1.484 5.493 5.493 0 0 1-1.824.823c-.672.175-1.438.263-2.28.263h-.54c-.388 0-.764.14-1.06.39a1.64 1.64 0 0 0-.551.985l-.041.222-.686 4.344-.03.16c-.01.05-.023.075-.044.092a.115.115 0 0 1-.071.026H5.39z"/>
        <path fill="#179BD7" d="M17.1 5.688c-.02.133-.044.269-.071.408-.918 4.713-4.058 6.34-8.068 6.34H6.92a.992.992 0 0 0-.98.84l-1.045 6.63-.296 1.88a.522.522 0 0 0 .515.603h3.622a.871.871 0 0 0 .86-.734l.036-.184.682-4.327.044-.238a.87.87 0 0 1 .86-.736h.542c3.509 0 6.255-1.424 7.058-5.546.335-1.722.162-3.16-.726-4.171a3.463 3.463 0 0 0-.99-.765z"/>
        <path fill="#222D65" d="M16.14 5.306a7.24 7.24 0 0 0-.892-.199 11.34 11.34 0 0 0-1.8-.13H7.993a.87.87 0 0 0-.86.735l-1.16 7.35-.034.214a.991.991 0 0 1 .98-.84h2.042c4.01 0 7.15-1.628 8.068-6.34.027-.139.05-.275.071-.408a4.892 4.892 0 0 0-.96-.382z"/>
        <path fill="#253B80" d="M7.133 5.712a.867.867 0 0 1 .86-.735h5.455c.646 0 1.249.042 1.8.131.372.059.74.146 1.098.262.271.09.523.196.755.318.273-1.74-.002-2.927-.944-4C15.12.506 13.246 0 10.85 0h-6.96a.995.995 0 0 0-.983.84L.007 19.216a.598.598 0 0 0 .59.691h4.297l1.079-6.844 1.16-7.35z"/>
    </g>
</svg>
