<svg xmlns="http://www.w3.org/2000/svg" width="29" height="30" viewBox="0 0 29 30">
    <g fill="#DCDCDC" fill-rule="nonzero">
        <path d="M3.994 8a3 3 0 1 0 6 0 3 3 0 0 0-6 0z"/>
        <path d="M27.91 4.06c-.016-.063-.032-.129-.05-.191-.02-.063-.038-.125-.06-.185l-.031-.09c-.035-.09-.069-.182-.11-.269a4.369 4.369 0 0 0-.175-.34c-.03-.057-.065-.11-.1-.163-.018-.028-.034-.053-.053-.078a3.966 3.966 0 0 0-.168-.232c-.041-.05-.082-.1-.122-.146A3.946 3.946 0 0 0 24.05.994H3.965a3.922 3.922 0 0 0-2.366.79c-.075.057-.15.116-.222.178l-.072.063-.103.097-.069.069a3.296 3.296 0 0 0-.221.247l-.06.075a3.883 3.883 0 0 0-.803 1.86c-.031.205-.05.414-.05.627v20c0 .288.031.572.09.844a3.95 3.95 0 0 0 1.032 1.94l.084.085a4.328 4.328 0 0 0 .553.453c.025.019.053.034.078.053.054.034.11.069.163.1l.084.047a4.326 4.326 0 0 0 .803.331c.188.053.382.094.579.119.175.025.353.037.534.037h20c.113 0 .222-.006.331-.012a3.777 3.777 0 0 0 .99-.2 3.73 3.73 0 0 0 .448-.184c.056-.029.115-.057.172-.088l.084-.047c.275-.16.531-.35.763-.569.018-.015.034-.034.05-.05.006-.006.012-.009.015-.015.069-.069.131-.138.194-.21.003-.003.006-.009.012-.012a4.053 4.053 0 0 0 .225-.285c.013-.018.025-.037.038-.053.01-.012.019-.028.028-.04a.707.707 0 0 0 .04-.063c.013-.022.026-.04.038-.062l.013-.019.065-.113.075-.137c.04-.078.078-.16.113-.24.015-.038.031-.072.044-.11.028-.069.053-.14.078-.212.015-.05.034-.104.047-.157.018-.062.034-.128.05-.19l.018-.088c.013-.06.025-.119.035-.181 0-.006.003-.013.003-.022.006-.05.015-.097.018-.147.007-.05.01-.1.016-.15.006-.1.013-.2.013-.303V4.95a4.183 4.183 0 0 0-.107-.89zm-6.404 9.54a2.031 2.031 0 0 0-2.869 0l-7.562 7.563-3.572-3.57a2.031 2.031 0 0 0-2.869 0L2 20.229V5c0-.531.21-1.031.59-1.41C2.97 3.21 3.47 3 4 3h20c.531 0 1.031.21 1.41.59.38.379.59.879.59 1.41v13.094L21.506 13.6z"/>
    </g>
</svg>
