<svg xmlns="http://www.w3.org/2000/svg" width="14" height="14" viewBox="0 0 14 14">
    <path fill="#4742EC" fill-rule="nonzero" d="M9.45 7.787a4.23 4.23 0 0 0 1.838-3.5A4.294 4.294 0 0 0 7 0a4.263 4.263 0 0 0-4.258 4.258 4.23 4.23 0 0 0 1.837 3.5C2.071 8.75.321 11.171.321 14h1.196c0-2.8 2.129-5.133 4.841-5.454.03 0 .759-.058 1.371 0h.058a5.474 5.474 0 0 1 4.696 5.425h1.225A6.713 6.713 0 0 0 9.45 7.787zM7 7.467a3.2 3.2 0 0 1-3.208-3.209A3.2 3.2 0 0 1 7 1.05a3.2 3.2 0 0 1 3.208 3.208A3.2 3.2 0 0 1 7 7.467z"/>
</svg>
